<mxfile host="app.diagrams.net" modified="2020-05-03T10:15:12.515Z" agent="5.0 (Macintosh; Intel Mac OS X 10_15_4) AppleWebKit/537.36 (KHTML, like Gecko) Chrome/81.0.4044.129 Safari/537.36" etag="QzFU41_P5Gr4X3m_VOAw" version="13.0.5" type="github">
  <diagram id="GBBOF-SHSxRyv5rgYedi" name="Page-1">
    <mxGraphModel dx="1175" dy="963" grid="1" gridSize="10" guides="1" tooltips="1" connect="1" arrows="1" fold="1" page="1" pageScale="1" pageWidth="827" pageHeight="1169" math="0" shadow="0">
      <root>
        <mxCell id="0" />
        <mxCell id="1" parent="0" />
        <mxCell id="NZP4vuha6LIhXSQzdWDO-35" value="" style="rounded=1;whiteSpace=wrap;html=1;" parent="1" vertex="1">
          <mxGeometry x="74" y="240" width="726" height="690" as="geometry" />
        </mxCell>
        <mxCell id="NZP4vuha6LIhXSQzdWDO-17" value="" style="rounded=1;whiteSpace=wrap;html=1;" parent="1" vertex="1">
          <mxGeometry x="120" y="272.5" width="650" height="580" as="geometry" />
        </mxCell>
        <mxCell id="NZP4vuha6LIhXSQzdWDO-20" value="" style="rounded=1;whiteSpace=wrap;html=1;fillColor=#d5e8d4;strokeColor=#82b366;" parent="1" vertex="1">
          <mxGeometry x="344" y="330" width="366" height="270" as="geometry" />
        </mxCell>
        <mxCell id="NZP4vuha6LIhXSQzdWDO-18" value="" style="rounded=1;whiteSpace=wrap;html=1;fillColor=#ffe6cc;strokeColor=#d79b00;" parent="1" vertex="1">
          <mxGeometry x="344" y="671.5" width="346.5" height="180" as="geometry" />
        </mxCell>
        <mxCell id="NZP4vuha6LIhXSQzdWDO-1" value="internet gateway" style="outlineConnect=0;dashed=0;verticalLabelPosition=bottom;verticalAlign=top;align=center;html=1;shape=mxgraph.aws3.internet_gateway;fillColor=#F58534;gradientColor=none;" parent="1" vertex="1">
          <mxGeometry x="190" y="250" width="69" height="72" as="geometry" />
        </mxCell>
        <mxCell id="NZP4vuha6LIhXSQzdWDO-2" value="VPC 10.0.0.0/16" style="outlineConnect=0;dashed=0;verticalLabelPosition=bottom;verticalAlign=top;align=center;html=1;shape=mxgraph.aws3.vpc;fillColor=#F58534;gradientColor=none;" parent="1" vertex="1">
          <mxGeometry x="100" y="434.5" width="67.5" height="81" as="geometry" />
        </mxCell>
        <mxCell id="NZP4vuha6LIhXSQzdWDO-9" value="" style="outlineConnect=0;dashed=0;verticalLabelPosition=bottom;verticalAlign=top;align=center;html=1;shape=mxgraph.aws3.instances;fillColor=#F58534;gradientColor=none;" parent="1" vertex="1">
          <mxGeometry x="590" y="407" width="64" height="65" as="geometry" />
        </mxCell>
        <mxCell id="qOOnccj0nxzinkjQ5rcY-2" style="edgeStyle=orthogonalEdgeStyle;rounded=0;orthogonalLoop=1;jettySize=auto;html=1;" edge="1" parent="1" source="NZP4vuha6LIhXSQzdWDO-10" target="NZP4vuha6LIhXSQzdWDO-18">
          <mxGeometry relative="1" as="geometry">
            <Array as="points">
              <mxPoint x="626" y="610" />
              <mxPoint x="517" y="610" />
            </Array>
          </mxGeometry>
        </mxCell>
        <mxCell id="NZP4vuha6LIhXSQzdWDO-10" value="Web instances (node)" style="text;html=1;align=center;verticalAlign=middle;resizable=0;points=[];autosize=1;" parent="1" vertex="1">
          <mxGeometry x="560.5" y="472" width="130" height="20" as="geometry" />
        </mxCell>
        <mxCell id="NZP4vuha6LIhXSQzdWDO-12" value="autoscaling group" style="outlineConnect=0;dashed=0;verticalLabelPosition=bottom;verticalAlign=top;align=center;html=1;shape=mxgraph.aws3.auto_scaling;fillColor=#F58534;gradientColor=none;" parent="1" vertex="1">
          <mxGeometry x="530" y="305" width="50" height="50" as="geometry" />
        </mxCell>
        <mxCell id="qOOnccj0nxzinkjQ5rcY-7" style="edgeStyle=orthogonalEdgeStyle;rounded=0;orthogonalLoop=1;jettySize=auto;html=1;" edge="1" parent="1" source="NZP4vuha6LIhXSQzdWDO-11" target="NZP4vuha6LIhXSQzdWDO-25">
          <mxGeometry relative="1" as="geometry" />
        </mxCell>
        <mxCell id="NZP4vuha6LIhXSQzdWDO-11" value="db instances&lt;br&gt;" style="outlineConnect=0;dashed=0;verticalLabelPosition=bottom;verticalAlign=top;align=center;html=1;shape=mxgraph.aws3.instances;fillColor=#F58534;gradientColor=none;" parent="1" vertex="1">
          <mxGeometry x="500" y="740" width="70" height="63" as="geometry" />
        </mxCell>
        <mxCell id="NZP4vuha6LIhXSQzdWDO-19" value="Private subnet. 10.0.1.0/24" style="text;html=1;strokeColor=none;fillColor=none;align=center;verticalAlign=middle;whiteSpace=wrap;rounded=0;" parent="1" vertex="1">
          <mxGeometry x="360" y="790" width="40" height="20" as="geometry" />
        </mxCell>
        <mxCell id="NZP4vuha6LIhXSQzdWDO-21" value="public subnet 10.0.0.0/24" style="text;html=1;strokeColor=none;fillColor=none;align=center;verticalAlign=middle;whiteSpace=wrap;rounded=0;" parent="1" vertex="1">
          <mxGeometry x="360" y="552" width="40" height="20" as="geometry" />
        </mxCell>
        <mxCell id="qOOnccj0nxzinkjQ5rcY-9" style="edgeStyle=orthogonalEdgeStyle;rounded=0;orthogonalLoop=1;jettySize=auto;html=1;exitX=0.5;exitY=0;exitDx=0;exitDy=0;exitPerimeter=0;" edge="1" parent="1" source="NZP4vuha6LIhXSQzdWDO-25" target="NZP4vuha6LIhXSQzdWDO-1">
          <mxGeometry relative="1" as="geometry" />
        </mxCell>
        <mxCell id="qOOnccj0nxzinkjQ5rcY-10" style="edgeStyle=orthogonalEdgeStyle;rounded=0;orthogonalLoop=1;jettySize=auto;html=1;exitX=1;exitY=0.5;exitDx=0;exitDy=0;exitPerimeter=0;entryX=0.003;entryY=0.386;entryDx=0;entryDy=0;entryPerimeter=0;" edge="1" parent="1" source="NZP4vuha6LIhXSQzdWDO-25" target="NZP4vuha6LIhXSQzdWDO-20">
          <mxGeometry relative="1" as="geometry">
            <Array as="points">
              <mxPoint x="300" y="671" />
              <mxPoint x="300" y="434" />
            </Array>
          </mxGeometry>
        </mxCell>
        <mxCell id="NZP4vuha6LIhXSQzdWDO-25" value="router" style="outlineConnect=0;dashed=0;verticalLabelPosition=bottom;verticalAlign=top;align=center;html=1;shape=mxgraph.aws3.router;fillColor=#F58534;gradientColor=none;" parent="1" vertex="1">
          <mxGeometry x="200" y="640" width="69" height="62" as="geometry" />
        </mxCell>
        <mxCell id="NZP4vuha6LIhXSQzdWDO-36" value="Region" style="outlineConnect=0;dashed=0;verticalLabelPosition=bottom;verticalAlign=top;align=center;html=1;shape=mxgraph.aws3.cloud_2;fillColor=#F58534;gradientColor=none;" parent="1" vertex="1">
          <mxGeometry x="80" y="880" width="75" height="75" as="geometry" />
        </mxCell>
        <mxCell id="NZP4vuha6LIhXSQzdWDO-38" value="NAT gateway&lt;br&gt;" style="outlineConnect=0;dashed=0;verticalLabelPosition=bottom;verticalAlign=top;align=center;html=1;shape=mxgraph.aws3.vpc_nat_gateway;fillColor=#F58534;gradientColor=none;" parent="1" vertex="1">
          <mxGeometry x="350" y="399" width="70" height="73" as="geometry" />
        </mxCell>
        <mxCell id="NZP4vuha6LIhXSQzdWDO-41" value="" style="pointerEvents=1;shadow=0;dashed=0;html=1;strokeColor=none;fillColor=#505050;labelPosition=center;verticalLabelPosition=bottom;verticalAlign=top;outlineConnect=0;align=center;shape=mxgraph.office.security.lock_protected;" parent="1" vertex="1">
          <mxGeometry x="633.25" y="310" width="26.75" height="40" as="geometry" />
        </mxCell>
        <mxCell id="NZP4vuha6LIhXSQzdWDO-42" value="" style="pointerEvents=1;shadow=0;dashed=0;html=1;strokeColor=none;fillColor=#505050;labelPosition=center;verticalLabelPosition=bottom;verticalAlign=top;outlineConnect=0;align=center;shape=mxgraph.office.security.lock_protected;" parent="1" vertex="1">
          <mxGeometry x="643.25" y="650" width="26.75" height="40" as="geometry" />
        </mxCell>
        <mxCell id="NZP4vuha6LIhXSQzdWDO-44" style="edgeStyle=orthogonalEdgeStyle;rounded=0;orthogonalLoop=1;jettySize=auto;html=1;exitX=0.5;exitY=1;exitDx=0;exitDy=0;" parent="1" source="NZP4vuha6LIhXSQzdWDO-43" target="NZP4vuha6LIhXSQzdWDO-1" edge="1">
          <mxGeometry relative="1" as="geometry" />
        </mxCell>
        <mxCell id="NZP4vuha6LIhXSQzdWDO-43" value="Internet" style="aspect=fixed;perimeter=ellipsePerimeter;html=1;align=center;shadow=0;dashed=0;spacingTop=3;image;image=img/lib/active_directory/internet_cloud.svg;" parent="1" vertex="1">
          <mxGeometry x="155" y="100" width="126.98" height="80" as="geometry" />
        </mxCell>
        <mxCell id="qOOnccj0nxzinkjQ5rcY-4" style="edgeStyle=orthogonalEdgeStyle;rounded=0;orthogonalLoop=1;jettySize=auto;html=1;exitX=0.835;exitY=0.5;exitDx=0;exitDy=0;exitPerimeter=0;entryX=0.23;entryY=0.77;entryDx=0;entryDy=0;entryPerimeter=0;" edge="1" parent="1" source="NZP4vuha6LIhXSQzdWDO-45" target="NZP4vuha6LIhXSQzdWDO-9">
          <mxGeometry relative="1" as="geometry" />
        </mxCell>
        <mxCell id="NZP4vuha6LIhXSQzdWDO-45" value="load balancer" style="outlineConnect=0;dashed=0;verticalLabelPosition=bottom;verticalAlign=top;align=center;html=1;shape=mxgraph.aws3.elastic_load_balancing;fillColor=#F58534;gradientColor=none;" parent="1" vertex="1">
          <mxGeometry x="469" y="398.5" width="61" height="70" as="geometry" />
        </mxCell>
        <mxCell id="qOOnccj0nxzinkjQ5rcY-3" style="edgeStyle=orthogonalEdgeStyle;rounded=0;orthogonalLoop=1;jettySize=auto;html=1;exitX=0.75;exitY=0;exitDx=0;exitDy=0;entryX=1;entryY=0;entryDx=0;entryDy=0;" edge="1" parent="1" source="NZP4vuha6LIhXSQzdWDO-19" target="NZP4vuha6LIhXSQzdWDO-19">
          <mxGeometry relative="1" as="geometry" />
        </mxCell>
        <mxCell id="qOOnccj0nxzinkjQ5rcY-6" style="edgeStyle=orthogonalEdgeStyle;rounded=0;orthogonalLoop=1;jettySize=auto;html=1;exitX=0.5;exitY=1;exitDx=0;exitDy=0;exitPerimeter=0;" edge="1" parent="1" source="qOOnccj0nxzinkjQ5rcY-5" target="NZP4vuha6LIhXSQzdWDO-11">
          <mxGeometry relative="1" as="geometry">
            <Array as="points">
              <mxPoint x="465" y="772" />
            </Array>
          </mxGeometry>
        </mxCell>
        <mxCell id="qOOnccj0nxzinkjQ5rcY-5" value="bastion" style="outlineConnect=0;dashed=0;verticalLabelPosition=bottom;verticalAlign=top;align=center;html=1;shape=mxgraph.aws3.instance;fillColor=#F58534;gradientColor=none;" vertex="1" parent="1">
          <mxGeometry x="440" y="515.5" width="50" height="63" as="geometry" />
        </mxCell>
      </root>
    </mxGraphModel>
  </diagram>
</mxfile>
